<?xml version="1.0" encoding="utf-8"?>
<!-- Generator: Adobe Illustrator 22.0.0, SVG Export Plug-In . SVG Version: 6.00 Build 0)  -->
<svg version="1.1" id="Layer_1" xmlns="http://www.w3.org/2000/svg" xmlns:xlink="http://www.w3.org/1999/xlink" x="0px" y="0px"
	 viewBox="0 0 366 366" style="enable-background:new 0 0 366 366;" xml:space="preserve">
<style type="text/css">
	.st0{opacity:0.85;}
	.st1{fill:#09203F;}
</style>
<g class="st0">
	<g>
		<g>
			<g>
				<path class="st1" d="M183,354.7c-23.2,0-45.6-4.5-66.8-13.5c-20.4-8.6-38.8-21-54.6-36.8c-15.8-15.8-28.1-34.1-36.8-54.6
					c-9-21.2-13.5-43.7-13.5-66.8s4.5-45.6,13.5-66.8c8.6-20.4,21-38.8,36.8-54.6c15.8-15.8,34.1-28.1,54.6-36.8
					c21.2-9,43.7-13.5,66.8-13.5v74.1c-53.8,0-97.6,43.8-97.6,97.6c0,53.8,43.8,97.6,97.6,97.6c53.8,0,97.6-43.8,97.6-97.6h74.1
					c0,23.2-4.5,45.6-13.5,66.8c-8.6,20.4-21,38.8-36.8,54.6c-15.8,15.8-34.1,28.1-54.6,36.8C228.6,350.1,206.2,354.7,183,354.7z"/>
			</g>
		</g>
		<g>
			<path class="st1" d="M183,85.4V183h97.6C280.6,129.1,236.9,85.4,183,85.4z M247,123.4c-1.5,1.4-3.1,2.1-4.8,2.1
				c-0.6,0-2.2-0.4-4.7-1.2c-2.5-0.8-4.7-1.2-6.6-1.2c-2.6,0-4.7,0.7-6.4,2c-1.6,1.4-2.9,3.4-3.8,6.1c-0.9,2.7-1.5,5.9-1.9,9.6
				c-0.3,3.7-0.5,8.2-0.5,13.6v14.8c0,3.6-0.8,6.3-2.5,8.1c-1.7,1.8-3.8,2.7-6.4,2.7c-2.6,0-4.7-0.9-6.3-2.7
				c-1.6-1.8-2.5-4.5-2.5-8.1v-49.4c0-8,2.9-12,8.6-12c2.9,0,5.1,0.9,6.4,2.8c1.3,1.9,2,4.6,2.1,8.3c2.1-3.6,4.3-6.4,6.5-8.3
				c2.2-1.9,5.2-2.8,8.9-2.8c3.7,0,7.3,0.9,10.9,2.8c3.5,1.9,5.3,4.3,5.3,7.4C249.3,120.2,248.5,122,247,123.4z"/>
		</g>
	</g>
</g>
</svg>
